<svg width="488" height="104" viewBox="0 0 488 104" fill="none" xmlns="http://www.w3.org/2000/svg">
<path d="M60.8 101C57.6267 91.8533 53.52 80.7933 48.48 67.82H16L4.1 101H0.6L35.6 2.99999H43.3L51.98 25.82C64.86 59.6067 74.7067 84.6667 81.52 101H60.8ZM17.12 64.6H47.22L39.66 45C38.6333 42.48 35.9267 35.48 31.54 24L17.12 64.6ZM132.928 2.99999C143.102 2.99999 151.875 5.33333 159.248 9.99999C166.622 14.6667 172.175 20.78 175.908 28.34C179.735 35.8067 181.648 43.74 181.648 52.14C181.648 60.6333 179.735 68.6133 175.908 76.08C172.082 83.5467 166.388 89.5667 158.828 94.14C151.268 98.7133 142.075 101 131.248 101H112.068H92.7484C93.2151 84.3867 93.4484 68.0533 93.4484 52C93.4484 35.8533 93.2151 19.52 92.7484 2.99999H112.068H132.928ZM123.128 98.06C131.808 98.06 139.182 95.9133 145.248 91.62C151.315 87.2333 155.888 81.54 158.968 74.54C162.048 67.54 163.588 60.0267 163.588 52C163.588 44.0667 162.048 36.6 158.968 29.6C155.982 22.5067 151.502 16.8133 145.528 12.52C139.648 8.22666 132.602 6.08 124.388 6.08H111.928C111.555 24.9333 111.368 40.2867 111.368 52.14C111.368 63.9 111.555 79.2067 111.928 98.06H123.128ZM252.121 63.06C256.134 64.18 259.588 65.9067 262.481 68.24C265.468 70.48 267.894 72.9067 269.761 75.52C271.628 78.04 273.681 81.26 275.921 85.18C278.908 90.1267 281.474 93.8133 283.621 96.24C285.768 98.6667 288.568 100.253 292.021 101C287.168 102.867 282.361 103.8 277.601 103.8C270.134 103.8 264.721 101.233 261.361 96.1C259.868 94.3267 258.094 90.8267 256.041 85.6C254.174 81.2133 252.494 77.7133 251.001 75.1C249.601 72.3933 247.734 70.0133 245.401 67.96C243.161 65.9067 240.408 64.7867 237.141 64.6H214.321C214.321 73.9333 214.508 86.0667 214.881 101H195.561C196.028 84.3867 196.261 68.0533 196.261 52C196.261 35.8533 196.028 19.52 195.561 2.99999H214.881H237.421C245.448 2.99999 252.354 4.53999 258.141 7.61999C263.928 10.6067 268.268 14.5267 271.161 19.38C274.148 24.2333 275.641 29.4133 275.641 34.92C275.641 41.36 273.588 47.1933 269.481 52.42C265.468 57.5533 259.681 61.1 252.121 63.06ZM234.621 61.66C239.568 61.66 243.768 60.4 247.221 57.88C250.768 55.36 253.428 52.0467 255.201 47.94C256.974 43.8333 257.861 39.4467 257.861 34.78C257.861 29.8333 256.881 25.1667 254.921 20.78C252.961 16.3933 250.068 12.8467 246.241 10.14C242.414 7.43333 237.794 6.08 232.381 6.08H214.741C214.461 18.7733 214.321 32.54 214.321 47.38V61.66H234.621ZM350.817 102.4C348.11 102.773 345.17 102.96 341.997 102.96C331.077 102.96 321.603 100.393 313.577 95.26C305.55 90.1267 299.437 83.4533 295.237 75.24C291.13 66.9333 289.077 58.2533 289.077 49.2C289.077 40.6133 290.943 32.6333 294.677 25.26C298.503 17.7933 304.197 11.82 311.757 7.34C319.41 2.76666 328.743 0.479992 339.757 0.479992C350.77 0.479992 360.243 3.04666 368.177 8.17999C376.11 13.22 382.13 19.8467 386.237 28.06C390.343 36.2733 392.397 44.9067 392.397 53.96C392.397 61.8 390.81 69.1733 387.637 76.08C384.557 82.9867 379.89 88.82 373.637 93.58C367.477 98.34 359.87 101.28 350.817 102.4ZM350.117 100.3C357.957 99.2733 363.93 94.9333 368.037 87.28C372.143 79.5333 374.197 70.2 374.197 59.28C374.197 49.8533 372.657 40.7067 369.577 31.84C366.59 22.9733 362.203 15.8333 356.417 10.42C350.63 5.00666 343.91 2.53333 336.257 2.99999C329.817 3.37333 324.403 5.47333 320.017 9.3C315.723 13.1267 312.503 18.12 310.357 24.28C308.303 30.3467 307.277 37.02 307.277 44.3C307.277 53.4467 308.863 62.36 312.037 71.04C315.21 79.72 319.737 86.8133 325.617 92.32C331.497 97.8267 338.31 100.58 346.057 100.58C346.897 100.58 348.25 100.487 350.117 100.3ZM463.103 101L443.083 72.3C439.35 67.0733 436.596 63.1533 434.823 60.54L400.663 101H395.623L432.583 57.32C416.903 34.92 403.976 16.8133 393.803 2.99999H417.603C424.696 12.9867 430.483 21.2467 434.963 27.78L445.183 42.34L478.363 2.99999H483.403L447.563 45.56C461.47 65.2533 474.816 83.7333 487.603 101H463.103Z" fill="url(#paint0_linear_111_342)"/>
<defs>
<linearGradient id="paint0_linear_111_342" x1="244.5" y1="-79.3" x2="244.5" y2="137" gradientUnits="userSpaceOnUse">
<stop stop-color="#9768FF"/>
<stop offset="1" stop-color="#E8E1F8"/>
</linearGradient>
</defs>
</svg>
