<svg width="44" height="44" viewBox="0 0 44 44" fill="none" xmlns="http://www.w3.org/2000/svg">
<circle cx="22" cy="22" r="21.5" fill="white" stroke="#4E1A8B"/>
<g clip-path="url(#clip0_10_2465)">
<mask id="mask0_10_2465" style="mask-type:luminance" maskUnits="userSpaceOnUse" x="17" y="10" width="9" height="9">
<path d="M25.8298 14.0621L21.8229 10L17.812 14.0621L21.8229 18.1242L25.8298 14.0621ZM21.8229 11.5383L24.3109 14.0581L21.8229 16.5779L19.3349 14.0581L21.8229 11.5383Z" fill="white"/>
</mask>
<g mask="url(#mask0_10_2465)">
<path d="M25.8298 10H17.812V18.1202H25.8298V10Z" fill="url(#paint0_linear_10_2465)"/>
</g>
<mask id="mask1_10_2465" style="mask-type:luminance" maskUnits="userSpaceOnUse" x="25" y="18" width="9" height="9">
<path d="M25.6241 22.1181L29.6349 26.1802L33.6457 22.1181L29.6349 18.056L25.6241 22.1181ZM29.6349 24.6379L27.1469 22.1181L29.6349 19.5983L32.1229 22.1181L29.6349 24.6379Z" fill="white"/>
</mask>
<g mask="url(#mask1_10_2465)">
<path d="M33.6418 18.056H25.6241V26.1762H33.6418V18.056Z" fill="url(#paint1_linear_10_2465)"/>
</g>
<mask id="mask2_10_2465" style="mask-type:luminance" maskUnits="userSpaceOnUse" x="10" y="18" width="9" height="9">
<path d="M18.0177 22.1181L14.0108 18.056L10 22.1181L14.0108 26.1802L18.0177 22.1181ZM14.0108 19.5983L16.4988 22.1181L14.0108 24.6379L11.5229 22.1181L14.0108 19.5983Z" fill="white"/>
</mask>
<g mask="url(#mask2_10_2465)">
<path d="M18.0177 18.056H10V26.1762H18.0177V18.056Z" fill="url(#paint2_linear_10_2465)"/>
</g>
<mask id="mask3_10_2465" style="mask-type:luminance" maskUnits="userSpaceOnUse" x="17" y="25" width="9" height="9">
<path d="M17.812 29.9379L21.8229 34L25.8337 29.9379L21.8229 25.8798L17.812 29.9379ZM21.8229 32.4577L19.3349 29.9379L21.8229 27.4181L24.3109 29.9379L21.8229 32.4577Z" fill="white"/>
</mask>
<g mask="url(#mask3_10_2465)">
<path d="M25.8298 25.8798H17.812V34H25.8298V25.8798Z" fill="url(#paint3_linear_10_2465)"/>
</g>
<mask id="mask4_10_2465" style="mask-type:luminance" maskUnits="userSpaceOnUse" x="13" y="13" width="17" height="18">
<path d="M21.099 23.2118L20.5571 22.659L19.9678 22.0621L20.6362 21.3851L21.1781 20.8362L21.7675 20.2394L22.3569 20.8362L22.8988 21.3851L23.5672 22.0621L22.9739 22.663L22.432 23.2118L21.7635 23.8888L21.099 23.2118ZM26.3558 14.0821C26.1937 14.2464 26.1343 14.4707 26.1699 14.683L21.7635 19.1417L17.3611 14.683C17.3967 14.4707 17.3374 14.2464 17.1752 14.0821C16.9141 13.8177 16.487 13.8177 16.2259 14.0821C15.9648 14.3465 15.9648 14.7792 16.2259 15.0436C16.3881 15.2078 16.6096 15.2679 16.8192 15.2318L21.2256 19.6945L20.6362 20.2914L16.2299 15.8287C16.2655 15.6164 16.2061 15.3921 16.0439 15.2278C15.7829 14.9634 15.3557 14.9634 15.0946 15.2278C14.8336 15.4922 14.8336 15.9249 15.0946 16.1893C15.2568 16.3535 15.4783 16.4136 15.688 16.3776L20.0943 20.8403L19.4259 21.5173L15.0195 17.0546C15.0551 16.8423 14.9957 16.6179 14.8336 16.4537C14.5725 16.1893 14.1453 16.1893 13.8843 16.4537C13.6232 16.7181 13.6232 17.1507 13.8843 17.4151C14.0464 17.5794 14.2679 17.6395 14.4776 17.6034L18.884 22.0661L14.4776 26.5248C14.2679 26.4887 14.0464 26.5488 13.8843 26.7131C13.6232 26.9775 13.6232 27.4101 13.8843 27.6745C14.1453 27.9389 14.5725 27.9389 14.8336 27.6745C14.9957 27.5103 15.0551 27.2859 15.0195 27.0736L19.4259 22.6109L20.0152 23.2078L15.6088 27.6705C15.3992 27.6344 15.1777 27.6945 15.0155 27.8588C14.7545 28.1232 14.7545 28.5558 15.0155 28.8202C15.2766 29.0846 15.7038 29.0846 15.9648 28.8202C16.127 28.656 16.1863 28.4316 16.1507 28.2193L20.5571 23.7566L21.2256 24.4336L16.8192 28.8963C16.6096 28.8603 16.3881 28.9204 16.2259 29.0846C15.9648 29.349 15.9648 29.7817 16.2259 30.0461C16.487 30.3105 16.9141 30.3105 17.1752 30.0461C17.3374 29.8818 17.3967 29.6575 17.3611 29.4452L21.7675 24.9825L26.1739 29.4452C26.1383 29.6575 26.1976 29.8818 26.3598 30.0461C26.6208 30.3105 27.048 30.3105 27.3091 30.0461C27.5702 29.7817 27.5702 29.349 27.3091 29.0846C27.1469 28.9204 26.9254 28.8603 26.7158 28.8963L22.3054 24.4336L22.9739 23.7566L27.3803 28.2193C27.3447 28.4316 27.404 28.656 27.5662 28.8202C27.8273 29.0846 28.2545 29.0846 28.5155 28.8202C28.7766 28.5558 28.7766 28.1232 28.5155 27.8588C28.3533 27.6945 28.1318 27.6344 27.9222 27.6705L23.5158 23.2118L24.1052 22.6149L28.5116 27.0736C28.476 27.2859 28.5353 27.5103 28.6975 27.6745C28.9585 27.9389 29.3857 27.9389 29.6468 27.6745C29.9078 27.4101 29.9078 26.9775 29.6468 26.7131C29.4846 26.5488 29.2631 26.4887 29.0535 26.5248L24.6471 22.0621L29.0495 17.5994C29.2591 17.6354 29.4806 17.5754 29.6428 17.4111C29.9039 17.1467 29.9039 16.7141 29.6428 16.4497C29.3818 16.1853 28.9546 16.1853 28.6935 16.4497C28.5313 16.6139 28.472 16.8382 28.5076 17.0506L24.1052 21.5133L23.4367 20.8362L27.8431 16.3736C28.0527 16.4096 28.2742 16.3495 28.4364 16.1853C28.6975 15.9209 28.6975 15.4882 28.4364 15.2238C28.1753 14.9594 27.7482 14.9594 27.4871 15.2238C27.3249 15.3881 27.2656 15.6124 27.3012 15.8247L22.8988 20.2874L22.3094 19.6905L26.7158 15.2278C26.9254 15.2639 27.1469 15.2038 27.3091 15.0396C27.5702 14.7752 27.5702 14.3425 27.3091 14.0781C27.1786 13.9459 27.0045 13.8778 26.8344 13.8778C26.6564 13.8818 26.4864 13.9499 26.3558 14.0821Z" fill="white"/>
</mask>
<g mask="url(#mask4_10_2465)">
<path d="M29.9078 13.8177H13.6232V30.3105H29.9078V13.8177Z" fill="url(#paint4_linear_10_2465)"/>
</g>
</g>
<defs>
<linearGradient id="paint0_linear_10_2465" x1="17.8121" y1="14.0597" x2="25.8303" y2="14.0597" gradientUnits="userSpaceOnUse">
<stop stop-color="#C653FF"/>
<stop offset="1" stop-color="#2F0A6D"/>
</linearGradient>
<linearGradient id="paint1_linear_10_2465" x1="25.6244" y1="22.1173" x2="33.6426" y2="22.1173" gradientUnits="userSpaceOnUse">
<stop stop-color="#C653FF"/>
<stop offset="1" stop-color="#2F0A6D"/>
</linearGradient>
<linearGradient id="paint2_linear_10_2465" x1="9.99976" y1="22.1173" x2="18.0179" y2="22.1173" gradientUnits="userSpaceOnUse">
<stop stop-color="#C653FF"/>
<stop offset="1" stop-color="#2F0A6D"/>
</linearGradient>
<linearGradient id="paint3_linear_10_2465" x1="17.8121" y1="29.9379" x2="25.8303" y2="29.9379" gradientUnits="userSpaceOnUse">
<stop stop-color="#C653FF"/>
<stop offset="1" stop-color="#2F0A6D"/>
</linearGradient>
<linearGradient id="paint4_linear_10_2465" x1="13.6867" y1="22.0622" x2="29.842" y2="22.0622" gradientUnits="userSpaceOnUse">
<stop stop-color="#C653FF"/>
<stop offset="1" stop-color="#2F0A6D"/>
</linearGradient>
<clipPath id="clip0_10_2465">
<rect width="23.6418" height="24" fill="white" transform="translate(10 10)"/>
</clipPath>
</defs>
</svg>
