<svg width="28" height="28" viewBox="0 0 28 28" fill="none" xmlns="http://www.w3.org/2000/svg">
<path d="M14.0002 18.6667C16.5774 18.6667 18.6668 16.5773 18.6668 14C18.6668 11.4227 16.5774 9.33334 14.0002 9.33334C11.4228 9.33334 9.3335 11.4227 9.3335 14C9.3335 16.5773 11.4228 18.6667 14.0002 18.6667Z" stroke="white" stroke-width="1.5" stroke-linecap="round" stroke-linejoin="round"/>
<path d="M3.5 18.6667V9.33333C3.5 6.11168 6.11168 3.5 9.33333 3.5H18.6667C21.8883 3.5 24.5 6.11168 24.5 9.33333V18.6667C24.5 21.8883 21.8883 24.5 18.6667 24.5H9.33333C6.11168 24.5 3.5 21.8883 3.5 18.6667Z" stroke="white" stroke-width="1.5"/>
<path d="M20.4165 7.59314L20.4265 7.58203" stroke="white" stroke-width="1.5" stroke-linecap="round" stroke-linejoin="round"/>
</svg>
