<svg width="183" height="52" viewBox="0 0 183 52" fill="none" xmlns="http://www.w3.org/2000/svg">
<g clip-path="url(#clip0_111_4801)">
<path d="M34.1259 8.6516L25.4869 0.0126038L16.8479 8.6516L25.4869 17.2906L34.1259 8.6516ZM25.4869 3.28462L30.8503 8.6516L25.4833 14.0186L20.1163 8.6516L25.4869 3.28462Z" fill="white"/>
<path d="M33.6812 25.7928L42.3201 34.4318L50.9591 25.7928L42.3201 17.1538L33.6812 25.7928ZM42.3201 31.1597L36.9532 25.7928L42.3201 20.4276L47.6889 25.7928L42.3201 31.1597Z" fill="white"/>
<path d="M17.2851 25.7928L8.64607 17.1538L0.00708008 25.7928L8.64607 34.4318L17.2851 25.7928ZM8.64607 20.4276L14.013 25.7928L8.63347 31.1597L3.2665 25.7928L8.64607 20.4276Z" fill="white"/>
<path d="M16.8406 42.4391L25.4796 51.0781L34.1186 42.4391L25.4796 33.8001L16.8406 42.4391ZM25.4796 47.806L20.1162 42.4391L25.4832 37.0721L30.8501 42.4391L25.4796 47.806Z" fill="white"/>
<path d="M41.0748 35.1733L31.5791 25.6776L41.073 16.1837C41.3746 16.2365 41.6851 16.1917 41.9595 16.056C42.2339 15.9202 42.4579 15.7006 42.5989 15.4289C42.74 15.1572 42.7908 14.8476 42.7439 14.5451C42.6971 14.2425 42.555 13.9628 42.3384 13.7465C42.1218 13.5302 41.8418 13.3886 41.5392 13.3422C41.2366 13.2958 40.9271 13.3471 40.6556 13.4886C40.3842 13.6301 40.1648 13.8544 40.0295 14.129C39.8942 14.4036 39.8499 14.7142 39.9031 15.0157L30.411 24.5095L28.9712 23.0697L38.4669 13.5758C38.7685 13.6286 39.079 13.5838 39.3534 13.4481C39.6278 13.3123 39.8518 13.0927 39.9928 12.821C40.1339 12.5493 40.1847 12.2397 40.1378 11.9372C40.091 11.6346 39.9489 11.3549 39.7323 11.1386C39.5157 10.9223 39.2357 10.7807 38.9331 10.7343C38.6305 10.6879 38.321 10.7392 38.0495 10.8807C37.7781 11.0222 37.5587 11.2465 37.4234 11.5211C37.2881 11.7957 37.2438 12.1063 37.297 12.4078L27.8014 21.9017L26.5307 20.6292L36.0264 11.1353C36.328 11.188 36.6385 11.1433 36.9129 11.0076C37.1873 10.8718 37.4113 10.6522 37.5523 10.3805C37.6934 10.1088 37.7442 9.79918 37.6973 9.49666C37.6505 9.19413 37.5084 8.91441 37.2918 8.69811C37.0752 8.48181 36.7952 8.34018 36.4926 8.2938C36.19 8.24742 35.8805 8.29868 35.609 8.44016C35.3375 8.58165 35.1182 8.80598 34.9829 9.08058C34.8476 9.35519 34.8033 9.66577 34.8565 9.96725L25.3608 19.4629L15.8669 9.96544C15.9201 9.66389 15.8757 9.35325 15.7403 9.07864C15.6048 8.80402 15.3854 8.57973 15.1138 8.43836C14.8421 8.29698 14.5325 8.24587 14.2299 8.29246C13.9273 8.33905 13.6474 8.4809 13.4309 8.69742C13.2143 8.91393 13.0725 9.19383 13.0259 9.49647C12.9793 9.79911 13.0304 10.1087 13.1718 10.3803C13.3132 10.6519 13.5375 10.8714 13.8121 11.0068C14.0867 11.1423 14.3973 11.1867 14.6989 11.1335L24.1946 20.6274L22.9221 21.8999L13.4264 12.4042C13.4796 12.1026 13.4352 11.792 13.2998 11.5174C13.1643 11.2427 12.9448 11.0185 12.6732 10.8771C12.4016 10.7357 12.092 10.6846 11.7894 10.7312C11.4868 10.7778 11.2069 10.9196 10.9903 11.1361C10.7738 11.3526 10.632 11.6326 10.5854 11.9352C10.5388 12.2378 10.5899 12.5474 10.7313 12.819C10.8727 13.0906 11.0969 13.3101 11.3716 13.4456C11.6462 13.581 11.9568 13.6254 12.2584 13.5722L21.7541 23.0661L20.3142 24.506L10.8203 15.0103C10.8735 14.7088 10.8293 14.3982 10.694 14.1236C10.5586 13.849 10.3393 13.6247 10.0678 13.4832C9.79636 13.3417 9.48685 13.2904 9.18425 13.3368C8.88166 13.3832 8.60172 13.5248 8.38508 13.7411C8.16845 13.9574 8.02639 14.2371 7.97954 14.5397C7.93269 14.8422 7.98349 15.1518 8.12455 15.4235C8.26561 15.6952 8.4896 15.9148 8.764 16.0506C9.0384 16.1863 9.34891 16.2311 9.65047 16.1783L19.1444 25.6776L9.64867 35.1733C9.34719 35.1205 9.03673 35.1652 8.76234 35.3008C8.48796 35.4364 8.26392 35.6559 8.12275 35.9275C7.98158 36.199 7.93062 36.5085 7.97727 36.811C8.02392 37.1135 8.16575 37.3932 8.38217 37.6097C8.59859 37.8261 8.87835 37.9679 9.18084 38.0146C9.48333 38.0612 9.79282 38.0103 10.0644 37.8691C10.336 37.7279 10.5555 37.5039 10.6911 37.2295C10.8267 36.9551 10.8713 36.6446 10.8185 36.3432L20.3124 26.8475L21.5849 28.1181L12.0892 37.6138C11.7877 37.561 11.4772 37.6057 11.2029 37.7413C10.9285 37.8769 10.7044 38.0964 10.5633 38.368C10.4221 38.6395 10.3711 38.949 10.4178 39.2515C10.4644 39.554 10.6063 39.8338 10.8227 40.0502C11.0391 40.2666 11.3189 40.4084 11.6214 40.4551C11.9238 40.5017 12.2333 40.4508 12.5049 40.3096C12.7765 40.1684 12.996 39.9444 13.1316 39.67C13.2672 39.3956 13.3118 39.0852 13.259 38.7837L22.7547 29.2898L24.1946 30.7296L14.6989 40.2253C14.3973 40.1722 14.0867 40.2165 13.8121 40.352C13.5375 40.4874 13.3132 40.7069 13.1718 40.9785C13.0304 41.2501 12.9793 41.5597 13.0259 41.8624C13.0725 42.165 13.2143 42.4449 13.4309 42.6614C13.6474 42.8779 13.9273 43.0198 14.2299 43.0664C14.5325 43.113 14.8421 43.0618 15.1138 42.9205C15.3854 42.7791 15.6048 42.5548 15.7403 42.2802C15.8757 42.0056 15.9201 41.6949 15.8669 41.3934L25.3608 31.8995L34.8565 41.3898C34.8033 41.6913 34.8476 42.0018 34.9829 42.2764C35.1182 42.5511 35.3375 42.7754 35.609 42.9169C35.8805 43.0583 36.19 43.1096 36.4926 43.0632C36.7952 43.0168 37.0752 42.8752 37.2918 42.6589C37.5084 42.4426 37.6505 42.1629 37.6973 41.8604C37.7442 41.5578 37.6934 41.2483 37.5523 40.9766C37.4113 40.7049 37.1873 40.4852 36.9129 40.3495C36.6385 40.2137 36.328 40.169 36.0264 40.2217L26.5307 30.726L27.9705 29.2862L37.4662 38.7819C37.4134 39.0834 37.4581 39.3938 37.5937 39.6682C37.7293 39.9426 37.9488 40.1666 38.2204 40.3078C38.4919 40.449 38.8014 40.4999 39.1039 40.4533C39.4064 40.4066 39.6862 40.2648 39.9026 40.0484C40.119 39.832 40.2608 39.5522 40.3075 39.2497C40.3541 38.9472 40.3032 38.6377 40.162 38.3662C40.0208 38.0946 39.7968 37.8751 39.5224 37.7395C39.248 37.6039 38.9376 37.5592 38.6361 37.612L29.1404 28.1163L30.411 26.8475L39.9067 36.3414C39.8539 36.6428 39.8986 36.9533 40.0342 37.2277C40.1698 37.5021 40.3893 37.7261 40.6609 37.8673C40.9325 38.0085 41.2419 38.0594 41.5444 38.0128C41.8469 37.9661 42.1267 37.8243 42.3431 37.6079C42.5595 37.3914 42.7014 37.1117 42.748 36.8092C42.7947 36.5067 42.7437 36.1972 42.6025 35.9256C42.4614 35.6541 42.2373 35.4346 41.9629 35.299C41.6886 35.1634 41.3781 35.1187 41.0766 35.1715L41.0748 35.1733ZM27.9687 26.9501L26.8007 28.1181L25.3608 29.558L23.921 28.1181L22.7511 26.9501L21.4805 25.6776L22.9203 24.2378L24.0902 23.0679L25.3608 21.7973L26.6333 23.0679L27.8014 24.2378L29.2412 25.6776L27.9687 26.9501Z" fill="white"/>
</g>
<path d="M64.2222 37.0168L73.0633 13.9654H80.1863L89.0274 37.0168H82.0118L80.0789 32.113H73.1349L71.2378 37.0168H64.2222ZM74.0297 27.2808H79.1841L76.6069 20.5157L74.0297 27.2808Z" fill="white"/>
<path d="M91.7536 37.0168V13.9654H101.74C104.079 13.9654 106.047 14.3592 107.646 15.1466C109.245 15.9102 110.462 17.1511 111.297 18.8692C112.132 20.5635 112.55 22.8185 112.55 25.6343C112.55 29.5955 111.631 32.4829 109.794 34.2964C107.98 36.11 105.296 37.0168 101.74 37.0168H91.7536ZM97.5165 32.5783H100.953C102.194 32.5783 103.232 32.3993 104.067 32.0414C104.926 31.6596 105.57 30.9676 106 29.9653C106.453 28.9631 106.68 27.5194 106.68 25.6343C106.68 23.7253 106.477 22.2577 106.071 21.2316C105.689 20.1817 105.069 19.4538 104.21 19.0482C103.375 18.6186 102.289 18.4039 100.953 18.4039H97.5165V32.5783Z" fill="white"/>
<path d="M115.703 37.0168V13.9654H126.763C129.412 13.9654 131.357 14.6694 132.598 16.0773C133.839 17.4613 134.459 19.3345 134.459 21.6969C134.459 23.248 134.053 24.5843 133.242 25.7059C132.455 26.8274 131.333 27.6387 129.877 28.1399C130.259 28.4501 130.557 28.7841 130.772 29.1421C131.011 29.5 131.249 29.9773 131.488 30.5738L134.28 37.0168H129.269L126.548 30.8244C126.31 30.2994 126.047 29.9296 125.761 29.7148C125.475 29.5 124.997 29.3926 124.329 29.3926H120.535V37.0168H115.703ZM120.535 25.3837H125.51C126.775 25.3837 127.765 25.1093 128.481 24.5605C129.197 23.9877 129.555 23.0332 129.555 21.6969C129.555 20.4083 129.245 19.4658 128.625 18.8692C128.004 18.2726 127.062 17.9744 125.797 17.9744H120.535V25.3837Z" fill="white"/>
<path d="M147.793 37.3747C140.324 37.3747 136.589 33.4493 136.589 25.5985C136.589 21.3748 137.532 18.3204 139.417 16.4352C141.302 14.5501 144.094 13.6075 147.793 13.6075C151.492 13.6075 154.283 14.5501 156.169 16.4352C158.054 18.3204 158.996 21.3748 158.996 25.5985C158.996 33.4493 155.262 37.3747 147.793 37.3747ZM147.793 33.2584C149.964 33.2584 151.551 32.638 152.553 31.3971C153.58 30.1324 154.093 28.1995 154.093 25.5985C154.093 22.7111 153.58 20.6828 152.553 19.5135C151.551 18.3204 149.964 17.7238 147.793 17.7238C145.621 17.7238 144.022 18.3204 142.996 19.5135C141.994 20.6828 141.493 22.7111 141.493 25.5985C141.493 28.1995 141.994 30.1324 142.996 31.3971C144.022 32.638 145.621 33.2584 147.793 33.2584Z" fill="white"/>
<path d="M161.867 37.0168L170.099 25.5269L162.046 13.9654H166.556L172.426 22.5202L178.296 13.9654H182.842L174.753 25.5269L182.985 37.0168H178.404L172.426 28.5694L166.448 37.0168H161.867Z" fill="white"/>
<defs>
<clipPath id="clip0_111_4801">
<rect width="50.9683" height="51.0835" fill="white"/>
</clipPath>
</defs>
</svg>
