<svg width="44" height="44" viewBox="0 0 44 44" fill="none" xmlns="http://www.w3.org/2000/svg">
<circle cx="22" cy="22" r="21.5" fill="white" stroke="#4E1A8B"/>
<g clip-path="url(#clip0_10_2455)">
<path d="M32.8867 27.8519L29.2549 31.6884C29.176 31.7717 29.0805 31.8382 28.9743 31.8836C28.8682 31.929 28.7537 31.9524 28.638 31.9524H11.4216C11.3395 31.9524 11.2591 31.9287 11.1904 31.8844C11.1217 31.84 11.0677 31.7768 11.0349 31.7026C11.0022 31.6284 10.9922 31.5464 11.0061 31.4666C11.02 31.3869 11.0573 31.3129 11.1134 31.2537L14.7479 27.4172C14.8266 27.3341 14.9218 27.2678 15.0276 27.2224C15.1334 27.177 15.2476 27.1535 15.363 27.1533H32.5784C32.6605 27.1533 32.7409 27.1769 32.8096 27.2213C32.8782 27.2657 32.9323 27.3288 32.9652 27.403C32.9978 27.4773 33.0078 27.5593 32.9939 27.639C32.98 27.7187 32.9427 27.7927 32.8867 27.8519ZM29.2549 20.1263C29.176 20.0429 29.0805 19.9765 28.9743 19.9311C28.8682 19.8857 28.7537 19.8623 28.638 19.8623H11.4216C11.3395 19.8623 11.2591 19.886 11.1904 19.9304C11.1217 19.9747 11.0677 20.0379 11.0349 20.1121C11.0022 20.1863 10.9922 20.2683 11.0061 20.3481C11.02 20.4278 11.0573 20.5018 11.1134 20.561L14.7479 24.3975C14.8266 24.4806 14.9218 24.5469 15.0276 24.5923C15.1334 24.6377 15.2476 24.6612 15.363 24.6614H32.5784C32.6605 24.6614 32.7409 24.6378 32.8096 24.5934C32.8782 24.549 32.9323 24.4859 32.9652 24.4117C32.9978 24.3375 33.0078 24.2554 32.9939 24.1757C32.98 24.096 32.9427 24.022 32.8867 23.9628L29.2549 20.1263ZM11.4216 17.3705H28.638C28.7537 17.3706 28.8682 17.3472 28.9743 17.3018C29.0805 17.2563 29.176 17.1899 29.2549 17.1066L32.8867 13.27C32.9427 13.2109 32.98 13.1369 32.9939 13.0571C33.0078 12.9774 32.9978 12.8954 32.9652 12.8212C32.9323 12.747 32.8782 12.6838 32.8096 12.6394C32.7409 12.5951 32.6605 12.5714 32.5784 12.5714H15.363C15.2476 12.5716 15.1334 12.5951 15.0276 12.6405C14.9218 12.6859 14.8266 12.7522 14.7479 12.8354L11.1143 16.6719C11.0583 16.731 11.021 16.8049 11.0071 16.8845C10.9931 16.9642 11.0031 17.0461 11.0357 17.1203C11.0683 17.1945 11.1222 17.2577 11.1908 17.3021C11.2593 17.3465 11.3396 17.3703 11.4216 17.3705Z" fill="url(#paint0_linear_10_2455)"/>
</g>
<defs>
<linearGradient id="paint0_linear_10_2455" x1="12.8571" y1="32.4143" x2="30.6064" y2="12.1009" gradientUnits="userSpaceOnUse">
<stop offset="0.08" stop-color="#9945FF"/>
<stop offset="0.3" stop-color="#8752F3"/>
<stop offset="0.5" stop-color="#5497D5"/>
<stop offset="0.6" stop-color="#43B4CA"/>
<stop offset="0.72" stop-color="#28E0B9"/>
<stop offset="0.97" stop-color="#19FB9B"/>
</linearGradient>
<clipPath id="clip0_10_2455">
<rect width="22" height="19.381" fill="white" transform="translate(11 12.5714)"/>
</clipPath>
</defs>
</svg>
